<?xml version="1.0" standalone="no"?>
<!DOCTYPE svg PUBLIC "-//W3C//DTD SVG 20010904//EN"
 "http://www.w3.org/TR/2001/REC-SVG-20010904/DTD/svg10.dtd">
<svg version="1.0" xmlns="http://www.w3.org/2000/svg"
 width="247.000000pt" height="200.000000pt" viewBox="0 0 247.000000 200.000000"
 preserveAspectRatio="xMidYMid meet">

<g transform="translate(0.000000,200.000000) scale(0.100000,-0.100000)"
fill="#000000" stroke="none">
<path d="M380 1985 c-25 -7 -62 -20 -83 -29 -53 -23 -153 -129 -190 -200 -28
-57 -30 -70 -33 -181 -3 -114 -1 -124 27 -190 40 -96 119 -175 214 -214 72
-30 216 -51 351 -51 76 0 77 -2 52 -121 -34 -172 -101 -292 -242 -437 -85 -87
-253 -210 -418 -306 -27 -15 -50 -31 -52 -34 -4 -9 17 -55 47 -103 12 -19 33
-54 46 -77 14 -23 28 -42 33 -42 4 0 55 29 111 64 352 217 542 393 704 651 28
44 94 186 108 231 72 233 54 543 -45 759 -73 160 -178 245 -345 281 -76 17
-226 16 -285 -1z"/>
<path d="M1750 1985 c-25 -7 -61 -20 -81 -28 -55 -24 -146 -122 -187 -201 -36
-71 -37 -71 -36 -196 0 -114 3 -130 27 -184 38 -83 134 -175 218 -208 67 -27
220 -48 351 -48 51 0 68 -3 68 -14 0 -8 -9 -57 -20 -109 -59 -289 -243 -497
-647 -731 -34 -20 -64 -40 -67 -44 -4 -6 104 -205 120 -221 7 -7 79 36 247
147 305 202 508 418 634 677 45 93 61 141 79 245 31 171 5 457 -53 590 -3 8
-7 17 -8 20 -15 42 -76 142 -109 179 -23 25 -104 79 -150 99 -89 39 -294 54
-386 27z"/>
</g>
</svg>
